<?xml version="1.0" standalone="no"?>
<!DOCTYPE svg PUBLIC "-//W3C//DTD SVG 20010904//EN"
 "http://www.w3.org/TR/2001/REC-SVG-20010904/DTD/svg10.dtd">
<svg version="1.0" xmlns="http://www.w3.org/2000/svg"
 width="327.000000pt" height="327.000000pt" viewBox="0 0 327.000000 327.000000"
 preserveAspectRatio="xMidYMid meet">
<metadata>
Created by potrace 1.11, written by Peter Selinger 2001-2013
</metadata>
<g transform="translate(0.000000,327.000000) scale(0.100000,-0.100000)"
fill="#000000" stroke="none">
<path d="M927 2703 c-1 -1 -51 -3 -112 -4 -403 -11 -627 -183 -638 -491 -10
-262 105 -424 335 -472 l63 -13 -50 -8 c-172 -26 -310 -125 -374 -269 -12 -27
-24 -63 -27 -80 -3 -17 -9 -47 -13 -67 -5 -20 -7 -88 -6 -150 7 -285 129 -440
399 -509 121 -31 198 -35 636 -35 l414 0 1 1048 0 1047 -40 1 c-156 2 -587 4
-588 2z m163 -332 l65 -1 0 -240 c0 -205 -2 -241 -15 -244 -26 -7 -323 0 -370
8 -125 23 -180 91 -181 229 -2 111 41 188 124 222 40 17 194 32 277 28 19 -1
64 -2 100 -2z m58 -828 c5 -8 8 -502 3 -595 -1 -15 -18 -17 -163 -16 -198 1
-278 11 -343 43 -88 43 -127 134 -120 279 4 92 14 132 45 181 38 62 114 101
220 112 30 3 56 6 57 7 1 0 67 1 148 1 97 0 148 -4 153 -12z"/>
<path d="M1750 2700 l-45 -5 0 -1048 0 -1047 410 1 c278 1 442 6 510 15 378
50 539 227 530 579 -1 61 -8 130 -14 155 -25 97 -78 191 -141 247 -65 59 -195
112 -300 123 -8 1 13 8 48 15 214 47 328 188 336 417 2 57 -2 94 -19 183 -20
102 -125 228 -235 281 -105 51 -194 72 -335 80 -120 8 -688 10 -745 4z m713
-335 c144 -18 207 -92 207 -240 0 -86 -16 -134 -60 -176 -55 -53 -103 -62
-318 -63 l-186 -1 -1 233 c0 129 2 238 5 242 3 5 19 10 35 12 46 5 264 1 318
-7z m21 -820 c165 -18 245 -110 251 -287 6 -153 -31 -239 -121 -284 -67 -33
-116 -39 -329 -39 l-179 0 -1 300 c0 165 3 305 6 310 8 11 274 12 373 0z"/>
</g>
</svg>
